<svg xmlns="http://www.w3.org/2000/svg" viewBox="0 0 256 256"><clipPath id="c"><path d="m147 128 71-34v68"/></clipPath><radialGradient id="a" cx="55%" r="42%"><stop offset=".22" style="stop-color:#fe0"/><stop offset=".35" style="stop-color:#fe0;stop-opacity:.6"/><stop offset=".5" style="stop-color:#fe0;stop-opacity:0"/></radialGradient><radialGradient id="b" cx="85%" cy="72%" r="45%"><stop offset=".36" style="stop-color:#0099e6"/><stop offset=".44" style="stop-color:#009de6;stop-opacity:.6"/><stop offset=".52" style="stop-color:#009de6;stop-opacity:0"/></radialGradient><path d="M190.5 171c-9.5 13-27.5 29-58.5 29-42 0-71-35-71-72s29-72 71-72c31 0 49 16 58.5 29l19.5-9.5c-18-25.5-45-40-78-40-51 0-93 39.5-93 92.5s42 92.5 93 92.5c33 0 60-14.5 78-40" style="fill:#595656"/><g clip-path="url(#c)"><path d="M0 0H256V256H0" fill="#e6006f"/><path d="M0 0H256V256H0" fill="url(#a)"/><path d="M0 0H256V256H0" fill="url(#b)"/></g></svg>