<svg xmlns="http://www.w3.org/2000/svg" viewBox="0 0 256 256"><linearGradient id="a" x1="40%" x2="100%" y1="100%" y2="0%"><stop offset=".1" stop-color="#ee7e0c"/><stop offset=".5" stop-color="#f0c41e"/><stop offset=".75" stop-color="#ede32b"/></linearGradient><path d="M75 164.5c-5-5-5-12 0-17L93.5 129 61 96.5c-5-5-5-12 0-17L114.5 26l9 9c6 6 6 17 0 23l-30 30 32.5 32.5c5 5 5 12 0 17l-39 39ZM25 176l53.5 53.5c5 5 12 5 17 0l84-84h37c8.25 0 15.5-7.5 15.5-15.5v-13h-60c-3 0-5 0-8 3l-77 77-30.5-30.5c-5.834-5.834-16.343-5.657-22 0" fill="url(#a)"/></svg>